<svg width="40" height="40" viewBox="0 0 40 40" fill="none" xmlns="http://www.w3.org/2000/svg">
<path d="M38.1152 6.96539C38.554 6.35219 38.7914 5.62008 38.7914 4.85109C38.7914 3.87758 38.4123 2.96242 37.7239 2.27414C37.0356 1.58578 36.1204 1.20672 35.147 1.20672C34.3783 1.20672 33.6463 1.44398 33.0334 1.88242C30.9149 0.648594 28.5119 0 26.0281 0C23.6877 0 21.3682 0.589531 19.3202 1.70469C17.2366 2.83945 15.4701 4.50297 14.1964 6.52234L13.4439 6.06437L6.66376 17.2063L7.41314 17.6623L5.86118 20.2127C4.68415 20.7841 3.63884 21.5613 2.75001 22.5262C0.975557 24.453 0.000322397 26.9635 0.00391615 29.5955C0.0059474 31.0925 0.330557 32.5706 0.94626 33.92C-0.246787 35.3503 -0.172959 37.4868 1.16915 38.8289C1.87962 39.5394 2.8129 39.8946 3.7461 39.8946C4.57665 39.8946 5.40673 39.6125 6.08024 39.0498C7.44087 39.6727 8.92329 40 10.417 40C13.1998 40 15.8161 38.9163 17.7838 36.9485C18.6152 36.1172 19.2902 35.171 19.7942 34.1314L33.2852 25.9219C36.9735 23.6774 39.3838 19.9315 39.898 15.6446C40.2611 12.6174 39.6298 9.57016 38.1152 6.96539ZM35.147 3.55039C35.4944 3.55039 35.821 3.68562 36.0667 3.93141C36.3124 4.17703 36.4477 4.50359 36.4477 4.85102C36.4477 5.19844 36.3124 5.52508 36.0667 5.7707L32.1013 9.73609C31.5941 10.2433 30.7688 10.2432 30.2618 9.73617C29.7547 9.22906 29.7546 8.40383 30.2617 7.89672L34.2272 3.93125C34.4729 3.6857 34.7995 3.55039 35.147 3.55039ZM32.599 15.7809C32.1413 17.4655 31.0636 18.8956 29.5645 19.8079L13.7225 29.4481L13.6499 30.0056C13.5563 30.7241 13.2359 31.3748 12.7231 31.8876C12.3295 32.2813 11.8492 32.56 11.3307 32.7109C11.3469 32.571 11.356 32.4295 11.356 32.2865C11.356 31.313 10.9769 30.3978 10.2885 29.7095C9.47118 28.8921 8.35915 28.5459 7.29126 28.6688C7.42868 28.1907 7.67321 27.7455 8.01454 27.3749C8.54118 26.8032 9.22509 26.4481 9.99235 26.3481L10.5499 26.2755L13.5271 21.383L14.2291 21.8102L21.0093 10.6683L20.3118 10.2438C21.2269 8.84414 22.6048 7.83727 24.217 7.39914C25.4144 7.07367 26.6575 7.07875 27.8252 7.39844C27.267 8.72414 27.5263 10.3152 28.6046 11.3934C29.3152 12.104 30.2482 12.4591 31.1815 12.4591C31.6645 12.4591 32.1473 12.3631 32.5995 12.1727C32.9192 13.3404 32.9243 14.5835 32.599 15.7809ZM20.4412 3.76312C22.1463 2.83453 24.0782 2.34375 26.0281 2.34375C27.8655 2.34375 29.6482 2.77094 31.2584 3.58562L29.3916 5.4525C27.5603 4.72703 25.5354 4.61219 23.6026 5.13742C21.4088 5.73352 19.5366 7.10977 18.3075 9.02414L16.1986 7.74078C17.2576 6.07352 18.7195 4.70062 20.4412 3.76312ZM14.2277 9.285L17.7888 11.4521L13.4455 18.5896L9.88431 16.4225L14.2277 9.285ZM4.47407 24.1141C5.22907 23.2943 6.12993 22.6494 7.15157 22.1973L7.48751 22.0487L9.41524 18.8808L11.525 20.1646L9.11149 24.1308C8.03392 24.3891 7.04806 24.9648 6.29064 25.7871C5.24142 26.9263 4.71876 28.4668 4.83462 30.0095L2.74688 32.0972C2.48532 31.2932 2.34884 30.447 2.34767 29.5924C2.34493 27.5515 3.10009 25.6059 4.47407 24.1141ZM2.82642 37.1716C2.58079 36.9259 2.44548 36.5994 2.44548 36.252C2.44548 35.9045 2.58079 35.5779 2.82642 35.3323L6.79188 31.3668C7.03759 31.1211 7.36415 30.9859 7.71157 30.9859C8.05899 30.9859 8.38564 31.1211 8.63126 31.3668C8.87689 31.6125 9.0122 31.9391 9.0122 32.2865C9.0122 32.6339 8.87689 32.9605 8.63126 33.2062L4.66587 37.1716C4.15868 37.6787 3.33353 37.6787 2.82642 37.1716ZM37.5708 15.3656C37.1428 18.9338 35.1367 22.0516 32.0667 23.9198L17.9565 32.5062L17.808 32.8435C17.4081 33.7519 16.8425 34.5754 16.1266 35.2912C14.6015 36.8163 12.5738 37.6562 10.4168 37.6562C9.56251 37.6562 8.71235 37.5177 7.9011 37.2509L9.98462 35.1673C10.1299 35.1787 10.2752 35.1859 10.4199 35.1859C11.8926 35.1859 13.3187 34.6066 14.3805 33.5448C15.1225 32.8027 15.6304 31.8923 15.8685 30.8858L30.783 21.81C32.7967 20.5845 34.2449 18.6616 34.8607 16.3955C35.3859 14.4627 35.2709 12.4377 34.5456 10.6065L36.4121 8.74C37.436 10.768 37.8459 13.073 37.5708 15.3656Z" fill="#AEAEAE"/>
</svg>
