<svg width="40" height="40" viewBox="0 0 40 40" fill="none" xmlns="http://www.w3.org/2000/svg">
<path d="M28.0848 6.40094C27.737 4.90992 26.9806 3.54148 25.871 2.43195C24.3028 0.863672 22.2178 0 20 0C17.7822 0 15.6971 0.863672 14.1289 2.43187C13.0193 3.54141 12.263 4.90992 11.9152 6.40094H0V40H40V6.40094H28.0848ZM14.1289 14.1741C14.3505 14.3957 14.5829 14.6027 14.8241 14.7958V23.7875L20 21.1475L25.1759 23.7875V14.7958C25.4171 14.6027 25.6495 14.3957 25.871 14.1741C26.107 13.9381 26.3267 13.6902 26.5302 13.4322H30.3304C30.7179 14.6893 31.7117 15.6831 32.9688 16.0705V30.3303C31.7116 30.7177 30.7178 31.7116 30.3304 32.9687H9.66961C9.28219 31.7116 8.28828 30.7177 7.03125 30.3303V16.0705C8.28836 15.6831 9.28219 14.6892 9.66961 13.4322H13.4697C13.6733 13.6902 13.893 13.938 14.1289 14.1741ZM17.1678 16.1123C18.0637 16.4366 19.0188 16.6059 20 16.6059C20.9812 16.6059 21.9363 16.4366 22.8322 16.1123V19.961L20 18.5166L17.1678 19.9611V16.1123ZM15.7862 4.08914C16.9117 2.96367 18.4082 2.34375 20 2.34375C21.5917 2.34375 23.0882 2.96367 24.2138 4.08922C25.3394 5.21477 25.9593 6.71125 25.9593 8.30297C25.9593 9.89469 25.3394 11.3912 24.2138 12.5168C23.0883 13.6423 21.5918 14.2622 20 14.2622C18.4082 14.2622 16.9117 13.6423 15.7862 12.5168C14.6606 11.3912 14.0408 9.89477 14.0408 8.30297C14.0408 6.71117 14.6606 5.21469 15.7862 4.08914ZM37.6562 37.6562H2.34375V8.74469H11.7088C11.7509 9.55375 11.9085 10.3414 12.1738 11.0884H7.50164V12.2603C7.50164 13.1659 6.76492 13.9026 5.85938 13.9026H4.6875V32.4984H5.85938C6.76492 32.4984 7.50164 33.2351 7.50164 34.1406V35.3125H32.4984V34.1406C32.4984 33.2351 33.2351 32.4984 34.1406 32.4984H35.3125V13.9026H34.1406C33.2351 13.9026 32.4984 13.1659 32.4984 12.2603V11.0884H27.8262C28.0915 10.3414 28.2491 9.55375 28.2912 8.74469H37.6562V37.6562Z" fill="#AEAEAE"/>
<path d="M20.0007 11.982C22.0301 11.982 23.6811 10.3309 23.6811 8.30156C23.6811 6.27219 22.0301 4.62109 20.0007 4.62109C17.9713 4.62109 16.3203 6.27211 16.3203 8.30148C16.3203 10.3309 17.9713 11.982 20.0007 11.982ZM20.0007 6.96484C20.7378 6.96484 21.3373 7.56445 21.3373 8.30148C21.3373 9.03852 20.7377 9.63813 20.0007 9.63813C19.2637 9.63813 18.6641 9.03852 18.6641 8.30148C18.6641 7.56445 19.2637 6.96484 20.0007 6.96484Z" fill="#AEAEAE"/>
<path d="M10.2422 27.0234H17.922V29.3672H10.2422V27.0234Z" fill="#AEAEAE"/>
<path d="M22.0781 27.0234H29.758V29.3672H22.0781V27.0234Z" fill="#AEAEAE"/>
</svg>
