<svg width="40" height="40" viewBox="0 0 40 40" fill="none" xmlns="http://www.w3.org/2000/svg">
<path d="M32.8512 18.4802H30.1938L28.559 13.7941H23.4778V9.24118H25.3718C25.8328 10.3492 26.9264 11.1304 28.1994 11.1304C29.8874 11.1304 31.2607 9.75718 31.2607 8.06917C31.2607 6.38115 29.8874 5.00786 28.1994 5.00786C26.9264 5.00786 25.8328 5.78913 25.3718 6.89715H23.4778V0H16.2294V13.7941H11.1482L9.51336 18.4802H8.02795V12.7146C8.02795 11.841 8.73866 11.1304 9.61212 11.1304H12.4203V8.78636H9.61212C7.44608 8.78636 5.68392 10.5486 5.68392 12.7146V18.5982C3.01462 19.1426 1 21.5084 1 24.3361V30.0532C1 33.2822 3.62695 35.9091 6.85593 35.9091H7.53906V40H15.3505V35.9091H24.3568V40H32.1682V35.9091H32.8514C36.0804 35.9091 38.7073 33.2822 38.7073 30.0532V24.3361C38.7072 21.1071 36.0802 18.4802 32.8512 18.4802ZM28.1993 7.35189C28.5949 7.35189 28.9166 7.67365 28.9166 8.06917C28.9166 8.46468 28.5949 8.78636 28.1993 8.78636C27.8038 8.78636 27.4821 8.46468 27.4821 8.06917C27.4821 7.67365 27.8039 7.35189 28.1993 7.35189ZM9.88301 33.5651V20.8242H29.8241V33.5651H9.88301ZM18.5734 2.34403H21.1337V13.7941H18.5734V2.34403ZM12.8129 16.1382H26.8942L27.7112 18.4802H11.9959L12.8129 16.1382ZM3.34395 30.0532V24.3361C3.34395 22.3996 4.91937 20.8242 6.85585 20.8242H7.53898V33.5651H6.85585C4.91937 33.5651 3.34395 31.9897 3.34395 30.0532ZM13.0064 37.656H9.88301V35.9091H13.0064V37.656ZM29.8241 37.656H26.7006V35.9091H29.8241V37.656ZM36.3632 30.0532C36.3632 31.9897 34.7878 33.5651 32.8513 33.5651H32.1682V20.8242H32.8513C34.7878 20.8242 36.3632 22.3996 36.3632 24.3361V30.0532Z" fill="#AEAEAE"/>
</svg>
