<svg width="40" height="40" viewBox="0 0 40 40" fill="none" xmlns="http://www.w3.org/2000/svg">
<g clip-path="url(#clip0)">
<path d="M27.5544 30.7398L25.8906 32.4036L28.6433 35.1563L32.9328 30.8668L31.2691 29.2031L28.6433 31.8288L27.5544 30.7398Z" fill="#AEAEAE"/>
<path d="M37.6457 14.1176V4.70588C37.6457 2.11106 35.5346 0 32.9398 0H8.23392C4.99039 0 2.35156 2.63882 2.35156 5.88235V40H29.4104C33.9513 40 37.6457 36.3056 37.6457 31.7647C37.6457 27.6231 34.5724 24.1864 30.5869 23.6138V14.1176H37.6457ZM35.2927 4.70588V11.7647H30.5869V4.70588C30.5869 3.40847 31.6424 2.35294 32.9398 2.35294C34.2372 2.35294 35.2927 3.40847 35.2927 4.70588ZM35.2927 31.7647C35.2927 35.0082 32.6539 37.6471 29.4104 37.6471C26.1669 37.6471 23.528 35.0082 23.528 31.7647C23.528 28.5212 26.1669 25.8824 29.4104 25.8824C32.6539 25.8824 35.2927 28.5212 35.2927 31.7647ZM28.2339 23.6138C24.2484 24.1864 21.1751 27.6231 21.1751 31.7647C21.1751 34.0669 22.1251 36.1512 23.6532 37.6471H4.7045V5.88235C4.7045 3.93624 6.2878 2.35294 8.23392 2.35294H28.867C28.4652 3.04565 28.2339 3.84902 28.2339 4.70588V23.6138Z" fill="#AEAEAE"/>
<path d="M7.05859 11.7659H25.8821V4.70703H7.05859V11.7659ZM9.41154 7.05997H23.5292V9.41292H9.41154V7.05997Z" fill="#AEAEAE"/>
<path d="M7.05859 14.1172H11.7645V16.4701H7.05859V14.1172Z" fill="#AEAEAE"/>
<path d="M7.05859 18.8242H10.588V21.1772H7.05859V18.8242Z" fill="#AEAEAE"/>
<path d="M7.05859 23.5312H10.588V25.8842H7.05859V23.5312Z" fill="#AEAEAE"/>
<path d="M14.1172 14.1172H25.8819V16.4701H14.1172V14.1172Z" fill="#AEAEAE"/>
<path d="M7.05859 35.2932H14.1174V28.2344H7.05859V35.2932ZM9.41154 30.5873H11.7645V32.9403H9.41154V30.5873Z" fill="#AEAEAE"/>
<path d="M12.9414 18.8242H21.1767V21.1772H12.9414V18.8242Z" fill="#AEAEAE"/>
<path d="M12.9414 23.5312H17.6473V25.8842H12.9414V23.5312Z" fill="#AEAEAE"/>
</g>
<defs>
<clipPath id="clip0">
<rect width="40" height="40" fill="white"/>
</clipPath>
</defs>
</svg>
