<svg width="40" height="40" viewBox="0 0 40 40" fill="none" xmlns="http://www.w3.org/2000/svg">
<path d="M37.5779 7.08883V0H19.8205V1.815C19.1103 1.39406 18.2825 1.15141 17.3987 1.15141C16.1615 1.15141 15.0331 1.62555 14.1851 2.40133H4.07125V21.4088L2.42188 31.4073V34.1634H13.1754V31.383L11.1026 21.3845V9.43258H14.1852C15.0332 10.2084 16.1616 10.6826 17.3987 10.6826C18.2825 10.6826 19.1103 10.4399 19.8206 10.019V12.3484C17.5647 13.3394 15.9845 15.5939 15.9845 18.2117V40H34.4611V18.2117C34.4611 15.5939 32.8809 13.3394 30.625 12.3484V7.08883H37.5779ZM22.1643 2.34375H35.2341V4.74508H28.2812V7.08883H22.1643V2.34375ZM10.8316 31.8197H4.76555V31.5993L6.23742 22.6766H8.97664L10.8315 31.6235V31.8197H10.8316ZM8.75875 7.08883V20.3328H6.415V4.74508H12.7794C12.6841 5.12016 12.6332 5.51266 12.6332 5.91695C12.6332 6.32125 12.6842 6.71375 12.7794 7.08883H8.75875ZM17.3987 8.33883C16.0634 8.33883 14.9769 7.25242 14.9769 5.91695C14.9769 4.58156 16.0633 3.49516 17.3987 3.49516C18.7342 3.49516 19.8206 4.58156 19.8206 5.91695C19.8205 7.25242 18.7341 8.33883 17.3987 8.33883ZM18.3282 21.5777H32.1173V31.1262H18.3282V21.5777ZM18.3282 37.6562V33.4699H32.1173V37.6562H18.3282ZM32.1173 18.2117V19.234H18.3283V18.2117C18.3283 15.9741 20.1487 14.1537 22.3863 14.1537H28.0594C30.2969 14.1537 32.1173 15.9741 32.1173 18.2117ZM28.0593 11.81H22.3862C22.3118 11.81 22.2381 11.8131 22.1643 11.8156V9.43258H28.2812V11.8156C28.2074 11.8131 28.1337 11.81 28.0593 11.81Z" fill="#AEAEAE"/>
</svg>
