<svg width="40" height="40" viewBox="0 0 40 40" fill="none" xmlns="http://www.w3.org/2000/svg">
<g clip-path="url(#clip0)">
<path d="M4.70703 14.1172H23.5306V16.4701H4.70703V14.1172Z" fill="#AEAEAE"/>
<path d="M4.70703 18.8242H23.5306V21.1772H4.70703V18.8242Z" fill="#AEAEAE"/>
<path d="M4.70703 23.5312H23.5306V25.8842H4.70703V23.5312Z" fill="#AEAEAE"/>
<path d="M4.70703 28.2344H23.5306V30.5873H4.70703V28.2344Z" fill="#AEAEAE"/>
<path d="M4.70703 32.9414H23.5306V35.2944H4.70703V32.9414Z" fill="#AEAEAE"/>
<path d="M14.1188 4.70703H4.70703V11.7659H14.1188V4.70703ZM11.7659 9.41292H7.05997V7.05997H11.7659V9.41292Z" fill="#AEAEAE"/>
<path d="M0 0V40H28.2353V10.1009L18.1344 0L0 0ZM18.8235 4.01671L24.2186 9.41177H18.8235V4.01671ZM2.35294 37.6471V2.35294H16.4706V11.7647H25.8824V37.6471H2.35294Z" fill="#AEAEAE"/>
<path d="M36.4722 0H34.1193C32.1731 0 30.5898 1.58329 30.5898 3.52941V30.4795L35.2957 39.9849L40.0016 30.4795V3.52941C40.0016 1.58329 38.4184 0 36.4722 0ZM32.9428 28.5314V9.41177H37.6487V28.5315C36.1168 28.1363 34.4749 28.1362 32.9428 28.5314ZM34.1193 2.35294H36.4722C37.121 2.35294 37.6487 2.88071 37.6487 3.52941V7.05882H32.9428V3.52941C32.9428 2.88071 33.4705 2.35294 34.1193 2.35294ZM33.3968 30.8461C34.6072 30.5082 35.9402 30.4959 37.1946 30.8461L35.2957 34.6816L33.3968 30.8461Z" fill="#AEAEAE"/>
</g>
<defs>
<clipPath id="clip0">
<rect width="40" height="40" fill="white"/>
</clipPath>
</defs>
</svg>
