<svg width="40" height="40" viewBox="0 0 40 40" fill="none" xmlns="http://www.w3.org/2000/svg">
<path d="M34.3307 13.503L40 10.5277L20 0.03125L0 10.5277L10.3591 15.9643V23.7938H0V33.4985H16.18V39.9695L20 38.3382L23.82 39.9694V33.4984H30.0561C29.9645 33.7989 29.9149 34.1174 29.9149 34.4473C29.9149 35.1938 30.3154 36.1076 31.1753 37.3229C31.7273 38.103 32.274 38.7266 32.297 38.7527L33.1771 39.7535L34.0572 38.7527C34.0802 38.7266 34.627 38.103 35.1789 37.3229C36.0387 36.1076 36.4393 35.1938 36.4393 34.4473C36.4393 34.1173 36.3896 33.7988 36.2981 33.4984H40V23.7937H34.3307V13.503ZM33.1766 36.0961C32.6625 35.3812 32.2836 34.7175 32.2587 34.4414C32.262 33.9377 32.6727 33.529 33.177 33.529C33.6815 33.529 34.0922 33.9377 34.0954 34.4414C34.0705 34.7163 33.6912 35.3802 33.1766 36.0961ZM31.987 23.7937H29.6409V15.9643L31.987 14.733V23.7937ZM18.5238 31.1547V28.7552C19.0143 28.8108 19.5071 28.839 20 28.839C20.4928 28.839 20.9856 28.8107 21.4762 28.7551V31.1546H18.5238V31.1547ZM23.82 28.2697C24.4339 28.0832 25.0384 27.8517 25.6284 27.5734L28.6722 26.1375H31.9869V31.1548H23.82V28.2697ZM20 2.67508L35.0455 10.5277L32.262 11.9805L21.5345 6.4525L20.4609 8.53594L29.7199 13.3072L20 18.3802L4.95453 10.5277L20 2.67508ZM20 21.024L27.2972 17.1943V24.1946L24.6284 25.4537C21.6871 26.8413 18.3131 26.8413 15.3716 25.4537L12.7029 24.1946V17.1943L20 21.024ZM2.34375 31.1547V26.1374H11.3278L14.3716 27.5734C14.9617 27.8517 15.5662 28.0832 16.18 28.2697V31.1547H2.34375ZM21.4762 36.4201L20 35.7897L18.5238 36.4201V33.4984H21.4762V36.4201ZM37.6562 26.1374V31.1547H34.3307V26.1374H37.6562Z" fill="#AEAEAE"/>
</svg>
