<svg width="40" height="40" viewBox="0 0 40 40" fill="none" xmlns="http://www.w3.org/2000/svg">
<path d="M3.52853 24.7059H36.4697C40.4641 24.6295 41.3303 19.1767 37.6158 17.8391C37.1758 10.4907 31.8999 4.30533 24.705 2.73333V0H15.2932V2.73333C8.19857 4.28408 2.82766 10.3848 2.38233 17.8392C-1.3321 19.1776 -0.466297 24.6289 3.52853 24.7059ZM17.6462 2.35294H22.3521V9.41177C22.3521 10.7092 21.2965 11.7647 19.9991 11.7647C18.7017 11.7647 17.6462 10.7092 17.6462 9.41177V2.35294ZM9.41088 8.32996V12.9412H11.7638V6.60886C12.8547 5.97153 14.0391 5.47663 15.2932 5.15224V9.41177C15.2932 12.0066 17.4043 14.1176 19.9991 14.1176C22.5939 14.1176 24.705 12.0066 24.705 9.41177V5.15224C25.9591 5.47663 27.1436 5.97153 28.2344 6.60879V12.9412H30.5874V8.32996C33.2038 10.6918 34.9332 14.0056 35.2425 17.6471H4.75566C5.06508 14.0056 6.79433 10.6918 9.41088 8.32996ZM3.52853 20H36.4697C37.1184 20 37.6462 20.5278 37.6462 21.1765C37.6462 21.8252 37.1184 22.3529 36.4697 22.3529H3.52853C1.98013 22.2986 1.961 20.0623 3.52853 20Z" fill="#AEAEAE"/>
<path d="M35.2941 30.1958C35.2941 28.466 33.8867 27.0586 32.1569 27.0586H7.76604V27.0595C5.89906 27.0988 4.54 28.7489 4.70588 30.588H0V37.6468H4.80518C5.15435 38.9984 6.384 39.9998 7.84314 39.9998H15.1809C16.7598 39.9998 18.098 38.8183 18.2939 37.2516L18.5227 35.4217C18.6155 34.6781 19.2507 34.1174 20 34.1174C20.7493 34.1174 21.3845 34.678 21.4774 35.4217L21.7062 37.2516C21.902 38.8184 23.2403 39.9998 24.8191 39.9998H32.1569C33.6159 39.9998 34.8456 38.9984 35.1948 37.6468H40V30.588H35.2941V30.1958ZM2.35294 32.9409H4.70588V35.2939H2.35294V32.9409ZM32.9412 36.8625C32.9412 37.295 32.5893 37.6468 32.1569 37.6468H24.8191C24.4245 37.6468 24.0898 37.3515 24.0409 36.9598L23.8121 35.1298C23.5724 33.2112 21.9335 31.7645 20 31.7645C18.0666 31.7645 16.4277 33.2112 16.1878 35.1298L15.9591 36.9598C15.9101 37.3515 15.5755 37.6468 15.1809 37.6468H7.84314C7.41067 37.6468 7.05882 37.295 7.05882 36.8625V30.1958C7.05882 29.7634 7.41067 29.4115 7.84314 29.4115H32.1569C32.5893 29.4115 32.9412 29.7634 32.9412 30.1958V36.8625ZM37.6471 32.9409V35.2939H35.2941V32.9409H37.6471Z" fill="#AEAEAE"/>
</svg>
