<svg width="40" height="40" viewBox="0 0 40 40" fill="none" xmlns="http://www.w3.org/2000/svg">
<g clip-path="url(#clip0)">
<path d="M38.1992 1.69824L38.6992 0.298244L37.1992 0.198244C31.3992 -0.301756 27.4992 1.19824 24.7992 3.29824C22.4992 1.49824 19.5992 0.498244 16.4992 0.498244C8.99922 0.398244 2.79922 6.59824 2.79922 14.0982C2.79922 18.8982 5.29922 23.1982 9.09922 25.5982H1.19922L1.89922 27.1982C2.59922 28.7982 2.59922 30.6982 1.89922 32.2982L1.19922 33.9982H3.19922C2.89922 34.5982 2.79922 35.1982 2.79922 35.8982C2.79922 38.0982 4.69922 39.9982 6.99922 39.9982H34.1992L33.4992 38.3982C32.7992 36.8982 32.7992 34.9982 33.4992 33.2982L34.0992 31.6982H32.0992C32.3992 31.0982 32.4992 30.4982 32.4992 29.7982C32.4992 27.4982 30.5992 25.5982 28.2992 25.5982H23.9992C27.7992 23.1982 30.2992 18.8982 30.2992 14.0982C30.2992 13.1982 30.1992 12.2982 29.9992 11.4982C33.0992 9.99824 36.1992 7.09824 38.1992 1.69824ZM30.7992 37.6982H6.99922C5.99922 37.6982 5.09922 36.8982 5.09922 35.7982C5.09922 34.7982 5.99922 33.9982 6.99922 33.9982H30.8992C30.5992 35.1982 30.5992 36.4982 30.7992 37.6982ZM28.3992 27.8982C29.3992 27.8982 30.2992 28.6982 30.2992 29.7982C30.2992 30.7982 29.4992 31.6982 28.3992 31.6982H4.49922C4.79922 30.4982 4.79922 29.1982 4.49922 27.9982H28.3992V27.8982ZM16.4992 25.4982C10.1992 25.4982 5.09922 20.3982 5.09922 14.0982C5.09922 7.79824 10.2992 2.69824 16.4992 2.69824C18.9992 2.69824 21.1992 3.49824 23.0992 4.79824C22.2992 5.69824 21.5992 6.69824 21.0992 7.59824C19.7992 6.69824 18.1992 6.19824 16.4992 6.19824C12.0992 6.19824 8.49922 9.79824 8.49922 14.1982C8.49922 18.5982 12.0992 22.1982 16.4992 22.1982C20.8992 22.1982 24.4992 18.5982 24.4992 14.1982C24.4992 13.7982 24.4992 13.3982 24.3992 12.9982C25.3992 12.8982 26.5992 12.6982 27.7992 12.3982C27.8992 12.9982 27.8992 13.5982 27.8992 14.1982C27.9992 20.3982 22.7992 25.4982 16.4992 25.4982ZM16.4992 16.3982C17.7992 16.3982 18.7992 15.3982 18.7992 14.0982L20.7992 12.7982C21.0992 12.8982 21.4992 12.8982 22.0992 12.9982C22.1992 13.3982 22.1992 13.7982 22.1992 14.1982C22.1992 17.2982 19.6992 19.8982 16.4992 19.8982C13.2992 19.8982 10.7992 17.3982 10.7992 14.1982C10.7992 10.9982 13.2992 8.49824 16.4992 8.49824C17.7992 8.49824 19.0992 8.99824 19.9992 9.79824C19.7992 10.2982 19.6992 10.5982 19.5992 10.8982L17.4992 12.1982C17.1992 11.9982 16.7992 11.8982 16.4992 11.8982C15.2992 11.8982 14.1992 12.8982 14.1992 14.1982C14.1992 15.4982 15.2992 16.3982 16.4992 16.3982ZM29.3992 9.29824C28.6992 9.69824 27.9992 9.99824 27.2992 10.1982C26.1992 10.4982 25.1992 10.6982 24.1992 10.7982L26.7992 9.19824L28.7992 7.99824L30.1992 6.99824C30.6992 6.69824 30.8992 5.89824 30.5992 5.39824C30.2992 4.79824 29.4992 4.69824 28.9992 4.99824L27.4992 5.89824L25.4992 7.09824L22.9992 8.59824C23.3992 7.79824 23.9992 6.99824 24.7992 6.19824C25.2992 5.69824 25.8992 5.19824 26.4992 4.69824C28.4992 3.19824 31.3992 2.09824 35.3992 2.19824C33.7992 5.99824 31.5992 8.09824 29.3992 9.29824Z" fill="#AEAEAE"/>
</g>
<defs>
<clipPath id="clip0">
<rect width="40" height="40" fill="white"/>
</clipPath>
</defs>
</svg>
