<svg width="40" height="40" viewBox="0 0 40 40" fill="none" xmlns="http://www.w3.org/2000/svg">
<path d="M9.5625 21.8531H30.4397V9.80078H9.5625V21.8531ZM11.9062 12.1445H28.0959V19.5094H11.9062V12.1445Z" fill="#AEAEAE"/>
<path d="M40 11.4529H35.1683V7.05656C35.1683 3.16562 32.0027 0 28.1118 0H11.8882C7.99719 0 4.83164 3.16562 4.83164 7.05656V11.4529H0V20.1979H4.83172V26.8062C4.83172 29.608 5.67859 32.3037 7.28094 34.6021C8.8832 36.9005 11.1196 38.6276 13.7484 39.5967L14.8425 40H25.1575L26.2516 39.5966C28.8804 38.6275 31.1168 36.9004 32.7191 34.602C34.3213 32.3037 35.1683 29.608 35.1683 26.8062V20.1978H40V11.4529ZM2.34375 17.8541V13.7966H4.83172V17.8541H2.34375ZM32.8245 26.8062C32.8245 29.1262 32.1232 31.3586 30.7965 33.2617C29.4698 35.1648 27.6178 36.5951 25.441 37.3975L24.7393 37.6562H15.2607L14.559 37.3976C12.3822 36.5951 10.5303 35.1649 9.20352 33.2618C7.87672 31.3587 7.17547 29.1263 7.17547 26.8063V7.05656C7.17547 4.45797 9.28961 2.34375 11.8882 2.34375H28.1117C30.7104 2.34375 32.8245 4.45797 32.8245 7.05656V26.8062ZM37.6562 17.8541H35.1683V13.7966H37.6562V17.8541Z" fill="#AEAEAE"/>
<path d="M11.6602 4.89844H28.3365V7.24218H11.6602V4.89844Z" fill="#AEAEAE"/>
</svg>
