<svg width="40" height="40" viewBox="0 0 40 40" fill="none" xmlns="http://www.w3.org/2000/svg">
<path d="M37.6588 16.4706V14.1176C36.5123 14.1176 34.1724 14.1176 32.9529 14.1176V11.6158C34.6121 11.1872 35.9194 9.87396 36.3396 8.21137C41.4601 7.48651 41.0885 0.177569 35.8941 0H21.7764C16.578 0.179373 16.2142 7.48863 21.3309 8.21137C21.7511 9.87396 23.0584 11.1872 24.7176 11.6158V14.1176C23.4969 14.1176 21.156 14.1176 20.0117 14.1176V16.4706H22.1247L21.2463 21.1765H9.42348V15.2941H0.0117188V40H39.9379L35.5458 16.4706H37.6588ZM25.8941 9.41177C24.5967 9.41177 23.5411 8.35624 23.5411 7.05882V5.88235H21.7764C19.4347 5.78518 19.4365 2.44925 21.7764 2.35294H35.8941C38.2358 2.45012 38.234 5.78604 35.8941 5.88235H34.1294V7.05882C34.1294 8.35624 33.0738 9.41177 31.7764 9.41177H30.6V14.1176H27.0705V9.41177H25.8941ZM20.8071 23.5294L20.3679 25.8824H9.42348V23.5294H20.8071ZM7.07054 17.6471V20H2.36466V17.6471H7.07054ZM2.36466 37.6471V22.3529H7.07054V37.6471H2.36466ZM9.42348 37.6471V28.2353H19.9287L18.1718 37.6471H9.42348ZM20.5654 37.6471L21.0046 35.2941H36.6659L37.1051 37.6471H20.5654ZM36.2268 32.9412H21.4439L23.64 21.1765L24.5184 16.4706H33.1523L36.2268 32.9412Z" fill="#AEAEAE"/>
</svg>
