<svg width="40" height="40" viewBox="0 0 40 40" fill="none" xmlns="http://www.w3.org/2000/svg">
<path d="M34 2.4C32.4 3.4 30.4 3.9 28.3 3.9C26.2 3.9 24.2 3.4 22.6 2.4C22 2 21.3 1.5 20.8 0.9L20 0L19.2 0.9C18.5 1.5 18 2 17.3 2.4C15.7 3.4 13.7 3.9 11.6 3.9C9.5 3.9 7.5 3.4 5.9 2.4H3.5V22.7C3.5 27.1 5.7 31.1 9.5 33.4L20 40L30.5 33.5C34.2 31.2 36.5 27.2 36.5 22.8V2.4H34ZM34 22.8C34 26.4 32.2 29.7 29.1 31.6L20 37.3L10.8 31.5C7.7 29.6 5.9 26.3 5.9 22.7V5C7.6 5.8 9.6 6.2 11.6 6.2C14.8 6.2 17.9 5.1 20 3.3C22.1 5.1 25.2 6.2 28.4 6.2C30.4 6.2 32.4 5.8 34.1 5V22.8H34Z" fill="#AEAEAE"/>
<path d="M24.6992 10.7016C24.6992 9.30156 23.4992 8.10156 21.9992 8.10156H17.9992C16.4992 8.10156 15.2992 9.30156 15.2992 10.8016C11.8992 12.5016 9.69922 16.0016 9.69922 19.9016V21.8016C8.49922 22.3016 7.69922 23.4016 7.69922 24.7016C7.69922 26.4016 9.09922 27.9016 10.7992 27.9016H29.0992C30.8992 27.9016 32.0992 26.6016 32.0992 24.7016C32.0992 23.4016 31.2992 22.2016 30.0992 21.8016V19.9016C30.2992 15.9016 28.0992 12.5016 24.6992 10.7016ZM15.2992 13.5016V16.8016C15.2992 17.4016 15.7992 17.9016 16.3992 17.9016C16.9992 17.9016 17.4992 17.4016 17.4992 16.8016V10.9016C17.4992 10.7016 17.6992 10.5016 17.8992 10.5016H21.8992C22.0992 10.5016 22.2992 10.7016 22.2992 10.9016V16.8016C22.2992 17.4016 22.7992 17.9016 23.4992 17.9016C24.1992 17.9016 24.6992 17.4016 24.6992 16.8016V13.5016C26.6992 15.0016 27.9992 17.3016 27.9992 20.0016V21.6016H11.9992V20.0016C11.9992 17.3016 13.2992 14.9016 15.2992 13.5016ZM29.1992 25.5016H10.8992C10.3992 25.5016 9.99922 25.1016 9.99922 24.7016C9.99922 24.3016 10.3992 23.9016 10.8992 23.9016H29.0992C29.5992 23.9016 29.8992 24.3016 29.8992 24.7016C29.8992 25.0016 29.8992 25.5016 29.1992 25.5016Z" fill="#AEAEAE"/>
</svg>
