<svg width="40" height="40" viewBox="0 0 40 40" fill="none" xmlns="http://www.w3.org/2000/svg">
<path d="M27.2486 16.0147L29.045 17.5358L38.9243 5.8688H31.7725L34.9506 1.89619L33.1125 0.425781L26.875 8.2227H33.8466L27.2486 16.0147Z" fill="#AEAEAE"/>
<path d="M29.6697 21.5134L31.3341 23.1779L32.8559 21.6562V32.9383H17.5555V30.3279C20.271 29.5434 22.2633 27.0368 22.2633 24.0719V22.3457H19.9094V5.86834C19.9476 3.41745 17.3322 1.64755 15.0771 2.58715C14.1066 -0.863521 9.23339 -0.861245 8.26429 2.58715C6.00893 1.64739 3.39382 3.41761 3.43203 5.86826V22.3456H1.07812V24.0718C1.07812 27.0367 3.07039 29.5433 5.78594 30.3279V37.646H8.13984V39.9999H10.4937V37.646H12.8477V39.9999H15.2016V37.646H17.5555V35.2921H35.2098V21.6561L36.7314 23.1778L38.3958 21.5133L34.0328 17.1502L29.6697 21.5134ZM16.3785 4.6913C17.0275 4.6913 17.5555 5.21921 17.5555 5.86826V22.3456H15.2016V5.86826C15.2016 5.21929 15.7295 4.6913 16.3785 4.6913ZM10.4937 3.51435C10.5586 1.95261 12.7834 1.95379 12.8477 3.51435V5.86826V22.3456H10.4937V5.86826V3.51435ZM5.78594 5.86826C5.85075 4.30652 8.07558 4.3077 8.13984 5.86826V22.3456H5.78594V5.86826ZM3.47927 24.6995H19.8621C19.5586 26.6958 17.8305 28.2304 15.7507 28.2304H7.59052C5.51084 28.2304 3.78276 26.6958 3.47927 24.6995ZM15.2016 35.2921H8.13984V30.5843H15.2016V35.2921Z" fill="#AEAEAE"/>
</svg>
