<svg width="40" height="40" viewBox="0 0 40 40" fill="none" xmlns="http://www.w3.org/2000/svg">
<path d="M35.6 30.7016V26.4016H31.2V15.2016C32 14.4016 32.5 13.2016 32.5 12.0016V9.40156C32.5 8.00156 31.4 6.90156 30 6.90156H25.1C24.7 4.50156 22.5 2.60156 20 2.60156H12.6C10 2.60156 7.9 4.40156 7.5 6.90156H2.5C1.1 6.90156 0 8.00156 0 9.40156V12.0016C0 13.2016 0.5 14.4016 1.3 15.2016V30.5016C1.3 31.9016 2.4 33.0016 3.8 33.0016H11.3V37.3016H40V30.7016H35.6ZM33.3 28.7016V30.7016H26.8V28.7016H33.3ZM22.5 26.4016V24.4016H29V26.4016H22.5ZM24.5 28.7016V30.7016H18V28.7016H24.5ZM12.6 4.90156H20C21.3 4.90156 22.3 5.70156 22.7 6.90156H9.9C10.2 5.80156 11.3 4.90156 12.6 4.90156ZM2.3 12.0016V9.40156C2.3 9.30156 2.4 9.20156 2.5 9.20156H30C30.1 9.20156 30.2 9.30156 30.2 9.40156V12.0016C30.2 13.0016 29.5 13.9016 28.6 14.1016L21.1 16.2016V16.0016C21.1 15.0016 20.3 14.1016 19.2 14.1016H13.2C12.2 14.1016 11.3 14.9016 11.3 16.0016V16.2016L3.8 14.1016C3 13.9016 2.3 13.0016 2.3 12.0016ZM18.8 16.4016V19.0016H13.7V16.3016H18.8V16.4016ZM3.9 30.7016C3.8 30.7016 3.7 30.6016 3.7 30.5016V16.5016L11.5 18.6016V19.5016C11.5 20.5016 12.3 21.4016 13.4 21.4016H19.4C20.4 21.4016 21.3 20.6016 21.3 19.5016V18.6016L29.1 16.5016V22.0016H20.3V26.3016H15.9V30.6016H3.9V30.7016ZM20.1 35.0016H13.6V33.0016H20.1V35.0016ZM28.9 35.0016H22.4V33.0016H28.9V35.0016ZM37.7 35.0016H31.2V33.0016H37.7V35.0016Z" fill="#AEAEAE"/>
</svg>
