<svg width="40" height="40" viewBox="0 0 40 40" fill="none" xmlns="http://www.w3.org/2000/svg">
<g clip-path="url(#clip0)">
<path d="M40 10.5894C40 8.64327 38.4168 7.05997 36.4706 7.05997H25.8824V4.70703H0V30.5894H2.39561C2.03843 33.0749 3.97082 35.2953 6.47059 35.2953C7.62196 35.2953 8.66376 34.8197 9.41177 34.0554C10.1598 34.8197 11.2016 35.2953 12.3529 35.2953C14.8513 35.2953 16.7854 33.077 16.4279 30.5894H18.8235V32.9423H25.8824V30.5894H28.278C27.9208 33.0749 29.8532 35.2953 32.3529 35.2953C34.8513 35.2953 36.7854 33.077 36.4279 30.5894H40C40 28.7201 40 20.0551 40 18.4988L37.3719 14.1188H40V10.5894ZM2.35294 7.05997H23.5294V21.1776H2.35294V7.05997ZM6.47059 32.9423C5.49757 32.9423 4.70588 32.1507 4.70588 31.1776C4.70588 30.2045 5.49757 29.4129 6.47059 29.4129C7.44361 29.4129 8.23529 30.2045 8.23529 31.1776C8.23529 32.1507 7.44361 32.9423 6.47059 32.9423ZM12.3529 32.9423C11.3799 32.9423 10.5882 32.1507 10.5882 31.1776C10.5882 30.2045 11.3799 29.4129 12.3529 29.4129C13.326 29.4129 14.1176 30.2045 14.1176 31.1776C14.1176 32.1507 13.326 32.9423 12.3529 32.9423ZM23.5294 30.5894H21.1765V28.2364H23.5294V30.5894ZM32.3529 32.9423C31.3799 32.9423 30.5882 32.1507 30.5882 31.1776C30.5882 30.2045 31.3799 29.4129 32.3529 29.4129C33.326 29.4129 34.1176 30.2045 34.1176 31.1776C34.1176 32.1507 33.326 32.9423 32.3529 32.9423ZM37.4515 18.8247H32.9412C31.6438 18.8247 30.5882 17.7691 30.5882 16.4717V14.1188H34.628L37.4515 18.8247ZM37.6471 11.7659H28.2353V16.4717C28.2353 19.0666 30.3464 21.1776 32.9412 21.1776H37.6471V23.5306H35.2941V25.8835H37.6471V28.2364H35.2351V28.2406C33.6294 26.6646 31.0731 26.668 29.4707 28.2406V28.2364H25.8824V25.8835H18.8235V28.2364H15.2351V28.2406C13.6073 26.6429 11.0062 26.6706 9.41177 28.2998C7.81592 26.6692 5.2149 26.6441 3.58839 28.2406V28.2364H2.35294V23.5306H25.8824V9.41291H36.4706C37.1194 9.41291 37.6471 9.94068 37.6471 10.5894V11.7659Z" fill="#AEAEAE"/>
<path d="M4.70703 9.41406H7.05998V18.8258H4.70703V9.41406Z" fill="#AEAEAE"/>
<path d="M9.41016 9.41406H11.7631V18.8258H9.41016V9.41406Z" fill="#AEAEAE"/>
<path d="M14.1172 9.41406H16.4701V18.8258H14.1172V9.41406Z" fill="#AEAEAE"/>
<path d="M18.8242 9.41406H21.1772V18.8258H18.8242V9.41406Z" fill="#AEAEAE"/>
</g>
<defs>
<clipPath id="clip0">
<rect width="40" height="40" fill="white"/>
</clipPath>
</defs>
</svg>
