<svg width="40" height="40" viewBox="0 0 40 40" fill="none" xmlns="http://www.w3.org/2000/svg">
<path d="M38.2591 18.115L37.8697 18.4862C37.6569 18.6887 37.4222 18.8608 37.1716 19.0016V1.73438H0V33.4784H24.5141C24.9995 34.1204 25.6071 34.6738 26.3145 35.0967L31.6092 38.2625L36.9041 35.0967C38.8137 33.9549 40 31.8634 40 29.6387V18.115H38.2591ZM25.5623 4.07813H34.8279V7.61445H25.5623V4.07813ZM31.367 13.4945V9.95813H34.8279V13.4945H31.367ZM34.8279 15.8382V19.4459C33.9451 19.4351 33.1084 19.0957 32.468 18.4863L31.6087 17.6683L30.7509 18.4862C30.0998 19.1057 29.2463 19.4469 28.3475 19.4469H27.7523C26.9484 19.4469 26.1809 19.173 25.5624 18.6723V15.8381H34.8279V15.8382ZM13.953 4.07813H23.2186V7.61445H13.953V4.07813ZM17.4139 9.95813V13.4945H8.14844V9.95813H17.4139ZM2.34375 4.07813H11.6093V7.61445H2.34375V4.07813ZM2.34375 9.95813H5.80461V13.4945H2.34375V9.95813ZM2.34375 15.8382H11.6093V19.3746H2.34375V15.8382ZM17.4139 21.7184V25.2547H8.14844V21.7184H17.4139ZM2.34375 21.7184H5.80461V25.2547H2.34375V21.7184ZM11.6093 31.1347H2.34375V27.5984H11.6093V31.1347ZM23.2186 31.1347H13.953V27.5984H23.2186V31.1347ZM23.2186 25.2546H19.7577V21.7183H23.2186V25.2546ZM23.2186 19.3746H13.953V15.8382H23.2186V19.3746ZM19.7577 13.4945V9.95813H29.0233V13.4945H19.7577ZM37.6562 29.6387C37.6562 31.0435 36.9072 32.3642 35.7015 33.0852L31.6093 35.5318L27.5173 33.0852C26.3114 32.3641 25.5624 31.0435 25.5624 29.6387V21.3657C26.2503 21.6445 26.9917 21.7906 27.7523 21.7906H28.3475C29.5227 21.7906 30.6518 21.4416 31.6093 20.7938C32.5665 21.4416 33.6956 21.7906 34.8712 21.7906H35.4663C36.227 21.7906 36.9684 21.6445 37.6562 21.3657V29.6387Z" fill="#AEAEAE"/>
</svg>
